<svg width="512" height="512" viewBox="0 0 512 512" xmlns="http://www.w3.org/2000/svg">
  <rect width="512" height="512" fill="#f4ecd8"/>
  <g stroke="#e3d9c0" stroke-width="2">
    <path d="M0 128H512M0 256H512M0 384H512M128 0V512M256 0V512M384 0V512" fill="none"/>
  </g>
  <!-- たまご -->
  <path d="M256,104 C308,104 352,182 352,268 C352,358 312,408 256,408 C200,408 160,358 160,268 C160,182 204,104 256,104 Z"
        fill="#fbf7ec" stroke="#3a3326" stroke-width="9"/>
  <!-- 中で育つニューロン（2入力→1出力） -->
  <g stroke="#3a3326" stroke-width="6" stroke-linecap="round" stroke-opacity="0.85">
    <line x1="214" y1="246" x2="302" y2="282"/>
    <line x1="214" y1="318" x2="302" y2="282"/>
  </g>
  <circle cx="214" cy="246" r="16" fill="#7ec8e3" stroke="#3a3326" stroke-width="6"/>
  <circle cx="214" cy="318" r="16" fill="#7ec8e3" stroke="#3a3326" stroke-width="6"/>
  <circle cx="302" cy="282" r="20" fill="#c0392b" stroke="#3a3326" stroke-width="6"/>
  <!-- 孵化のきらめき -->
  <path d="M334,150 l9,22 22,9 -22,9 -9,22 -9,-22 -22,-9 22,-9 Z" fill="#f59e0b"/>
</svg>
